<svg id="Calque_1" data-name="Calque 1" xmlns="http://www.w3.org/2000/svg" viewBox="0 0 120 120"><title>Sans titre - 2</title><path style='fill: #FFF;' d="M78.92,0A18.92,18.92,0,1,1,41.08,0H3.25V120H41.08a18.92,18.92,0,1,1,37.83,0h37.83V0ZM22.17,113.54H9.56V100.93H22.17Zm0-18.92H9.56V82H22.17Zm0-18.92H9.56V63.09H22.17Zm0-18.92H9.56V44.18H22.17Zm0-18.92H9.56V25.26H22.17Zm0-18.92H9.56V6.34H22.17ZM87.4,73.55A10.45,10.45,0,1,1,77,63.21h.46c.29,0,.57,0,.86.08h.07l.22,0,.2,0h0a10.15,10.15,0,0,1,1.63.43V44.33L49.6,52.41V86h0a10.45,10.45,0,0,1-20.9,0,10.42,10.42,0,0,1,14-9.81V39.53L79.35,30A12,12,0,0,1,81,29.8a6.32,6.32,0,0,1,6.35,6.28Zm23,40H97.83V100.93h12.61Zm0-18.92H97.83V82h12.61Zm0-18.92H97.83V63.09h12.61Zm0-18.92H97.83V44.18h12.61Zm0-18.92H97.83V25.26h12.61Zm0-18.92H97.83V6.34h12.61Z"/></svg>
